<?xml version="1.0" encoding="UTF-8"?>
<!DOCTYPE svg PUBLIC "-//W3C//DTD SVG 1.0//EN" "http://www.w3.org/TR/2001/REC-SVG-20010904/DTD/svg10.dtd">
<!-- Creator: CorelDRAW X7 -->
<svg xmlns="http://www.w3.org/2000/svg" xml:space="preserve" width="114.146mm" height="52.8395mm" version="1.0" style="shape-rendering:geometricPrecision; text-rendering:geometricPrecision; image-rendering:optimizeQuality; fill-rule:evenodd; clip-rule:evenodd"
viewBox="0 0 11415 5284"
 xmlns:xlink="http://www.w3.org/1999/xlink">
 <defs>
  <style type="text/css">
   <![CDATA[
    .fil1 {fill:#0082BD;fill-rule:nonzero}
    .fil0 {fill:#00A8D8;fill-rule:nonzero}
   ]]>
  </style>
 </defs>
 <g id="Warstwa_x0020_1">
  <metadata id="CorelCorpID_0Corel-Layer"/>
  <polygon class="fil0" points="0,5284 0,0 11415,0 11415,5284 "/>
  <path class="fil1" d="M10441 5284c-239,-120 -434,-307 -554,-534 -378,-714 -193,-1531 79,-2208 210,-525 473,-965 565,-1207 37,-98 73,-197 106,-298 7,-21 14,-41 20,-62 6,-19 11,-37 17,-56 101,-339 135,-646 125,-919l-509 0c-65,141 -144,285 -239,428 -78,119 -162,236 -247,352 -53,78 -106,156 -161,233 -24,34 -49,69 -73,103 -270,374 -591,786 -861,1225 -385,625 -666,1304 -545,2004 45,258 122,600 290,939l1987 0z"/>
  <path class="fil1" d="M9700 5284c-17,-6 -34,-12 -51,-19l-156 -60c-43,-19 -91,-39 -131,-59 -79,-83 -160,-172 -235,-262 -83,-94 -159,-193 -237,-291 -80,-96 -149,-200 -224,-301 -76,-99 -143,-205 -211,-310 -68,-105 -140,-208 -198,-317l-186 -323c-57,-111 -111,-227 -168,-340l-84 -170c-23,-51 -48,-114 -73,-170l-147 -348c-51,-115 -93,-234 -139,-351l-133 -354 -122 -357c-43,-119 -79,-240 -115,-360 -37,-121 -75,-241 -107,-363 -34,-121 -68,-242 -97,-365 -13,-54 -27,-109 -39,-164l-156 0c14,67 28,134 44,200 27,125 59,248 91,372 30,124 66,246 101,368 34,123 69,245 109,366l117 364 128 360c44,119 84,240 134,358l142 354c25,60 46,115 74,180l81 172c54,115 107,229 164,343l189 338c61,115 133,221 202,329 69,108 137,217 213,320 76,104 146,211 227,311 79,101 156,204 240,301 70,84 141,166 216,248l537 0z"/>
  <path class="fil1" d="M4710 5284c27,-49 51,-100 72,-151 421,-1020 64,-2107 -392,-2992 -354,-686 -768,-1250 -924,-1567 -63,-129 -124,-259 -182,-392 -12,-27 -24,-54 -36,-81 -11,-25 -20,-50 -30,-75 -4,-9 -7,-17 -11,-26l1405 0 18 21c38,44 76,87 114,131 415,473 904,992 1328,1554 603,800 1072,1687 998,2653 -19,260 -57,582 -147,925l-2213 0z"/>
  <path class="fil1" d="M2792 0c691,934 1347,2020 1180,2601 -125,431 -614,808 -1229,1123 -23,12 -46,24 -70,35 -886,441 -2007,755 -2673,919l0 606 5187 0c59,-551 113,-1055 131,-1115 87,-251 -413,-1100 -357,-1298 340,-1182 -359,-1730 -560,-2382l-655 -274 -366 -215 -588 0z"/>
 </g>
</svg>
